Chef Academy S01E04 TVRip-XVID Dodecahedron

Episode 4: "A Bun in the oven"

Here's this week's episode, the source quality was not the standard HDTV,  
so the 350mb size was not justified at all.

-----

   General

      Format : AVI
      Format/Info : Audio Video Interleave
      File size : 175 MiB
      Duration : 44mn 24s
      Overall bit rate : 551 Kbps
      Writing application : VirtualDubMod 1.5.4.1 (build 2178/release)
      Writing library : VirtualDubMod build 2178/release

   Video

      Format : MPEG-4 Visual
      Format profile : Streaming Video@L1
      Format settings, BVOP : Yes
      Format settings, QPel : No
      Format settings, GMC : No warppoints
      Format settings, Matrix : Custom
      Codec ID : XVID
      Codec ID/Hint : XviD
      Duration : 44mn 24s
      Bit rate : 421 Kbps
      Width : 384 pixels
      Height : 288 pixels
      Display aspect ratio : 4/3
      Frame rate : 23.976 fps
      Resolution : 24 bits
      Colorimetry : 4:2:0
      Scan type : Progressive
      Bits/(Pixel*Frame) : 0.159
      Stream size : 134 MiB (76%)
      Writing library : XviD 50

   Audio

      Format : MPEG Audio
      Format version : Version 1
      Format profile : Layer 3
      Codec ID : 55
      Codec ID/Hint : MP3
      Duration : 44mn 24s
      Bit rate mode : Variable
      Bit rate : 118 Kbps
      Minimum bit rate : 128 Kbps
      Channel(s) : 2 channels
      Sampling rate : 48.0 KHz
      Resolution : 16 bits
      Stream size : 37.5 MiB (21%)
      Alignment : Aligned on interleaves
      Interleave, duration : 24 ms (0.58 video frame)
      Interleave, preload duration : 534 ms
      Writing library : LAME3.98r
      Encoding settings : ABR
